<?xml version="1.0" encoding="utf-8"?>
<!-- Generator: Adobe Illustrator 22.0.1, SVG Export Plug-In . SVG Version: 6.00 Build 0)  -->
<svg version="1.1" id="Forma_1_1_" xmlns="http://www.w3.org/2000/svg" xmlns:xlink="http://www.w3.org/1999/xlink" x="0px" y="0px"
	 viewBox="0 0 512 512" style="enable-background:new 0 0 512 512;" xml:space="preserve">
<style type="text/css">
	.st0{fill-rule:evenodd;clip-rule:evenodd;fill:#9EE1D5;}
</style>
<g id="Forma_1">
	<g>
		<path class="st0" d="M452,40h-24V0h-40v40H124V0H84v40H60C26.9,40,0,66.9,0,100v352c0,33.1,26.9,60,60,60h392
			c33.1,0,60-26.9,60-60V100C512,66.9,485.1,40,452,40z M472,452c0,11-9,20-20,20H60c-11,0-20-9-20-20V188h432V452z M472,148H40v-48
			c0-11,9-20,20-20h24v40h40V80h264v40h40V80h24c11,0,20,9,20,20V148z M116,230H76v40h40V230z M196,230h-40v40h40V230z M276,230h-40
			v40h40V230z M356,230h-40v40h40V230z M436,230h-40v40h40V230z M116,310H76v40h40V310z M196,310h-40v40h40V310z M276,310h-40v40h40
			V310z M356,310h-40v40h40V310z M116,390H76v40h40V390z M196,390h-40v40h40V390z M276,390h-40v40h40V390z M356,390h-40v40h40V390z
			 M436,310h-40v40h40V310z"/>
	</g>
</g>
</svg>
