<?xml version="1.0" encoding="utf-8"?>
<!-- Generator: Adobe Illustrator 22.0.1, SVG Export Plug-In . SVG Version: 6.00 Build 0)  -->
<svg version="1.1" id="Forma_1_1_" xmlns="http://www.w3.org/2000/svg" xmlns:xlink="http://www.w3.org/1999/xlink" x="0px" y="0px"
	 viewBox="0 0 512 512" style="enable-background:new 0 0 512 512;" xml:space="preserve">
<style type="text/css">
	.st0{fill-rule:evenodd;clip-rule:evenodd;fill:#9EE1D5;}
</style>
<g id="Forma_1">
	<g>
		<path class="st0" d="M437,75C388.7,26.6,324.4,0,256,0S123.3,26.6,75,75S0,187.6,0,256s26.6,132.7,75,181s112.6,75,181,75
			s132.7-26.6,181-75s75-112.6,75-181S485.4,123.3,437,75z M256,461.8c-113.5,0-205.8-92.3-205.8-205.8c0-0.2,0-0.4,0-0.6
			c0,0,0-0.1,0-0.1c0-0.1,0-0.2,0-0.2C50.8,143,141.3,51.8,253.2,50.3c0.2,0,0.5,0,0.7,0c0.1,0,0.3,0,0.4,0c0.6,0,1.1,0,1.7,0
			c113.5,0,205.8,92.3,205.8,205.8S369.5,461.8,256,461.8z M412.3,268.4c-8.4,0-15.1-6.8-15.1-15.1c0-8.4,6.8-15.1,15.1-15.1h18.3
			C422,154,353.8,87.3,269.1,81v15.9c0,8.4-6.8,15.1-15.1,15.1c-8.4,0-15.1-6.8-15.1-15.1V81.4c-83.5,8.2-150,75.1-157.5,158.8h16.4
			c8.4,0,15.1,6.8,15.1,15.1c0,8.4-6.8,15.1-15.1,15.1H81.1c7,85,74.8,153,159.7,160.3v-19.2c0-8.4,6.8-15.1,15.1-15.1
			s15.1,6.8,15.1,15.1v19.2c85.6-7.4,153.9-76.5,159.9-162.4H412.3z M317.3,216.1l-50.6,50.6c-2.8,2.8-6.7,4.4-10.7,4.4
			c-4,0-7.9-1.6-10.7-4.4l-88.1-88.1c-5.9-5.9-5.9-15.5,0-21.4c5.9-5.9,15.5-5.9,21.4,0l77.4,77.4l39.9-39.9
			c5.9-5.9,15.5-5.9,21.4,0C323.2,200.6,323.2,210.2,317.3,216.1z"/>
	</g>
</g>
</svg>
