<?xml version="1.0" encoding="utf-8"?>
<!-- Generator: Adobe Illustrator 22.0.1, SVG Export Plug-In . SVG Version: 6.00 Build 0)  -->
<svg version="1.1" id="Shape_1_1_" xmlns="http://www.w3.org/2000/svg" xmlns:xlink="http://www.w3.org/1999/xlink" x="0px" y="0px"
	 viewBox="0 0 512 478" style="enable-background:new 0 0 512 478;" xml:space="preserve">
<style type="text/css">
	.st0{fill-rule:evenodd;clip-rule:evenodd;fill:#9EE1D5;}
</style>
<g id="Shape_1">
	<g>
		<path class="st0" d="M79,416c-27,0-49-22-49-49c0-27,22-49,49-49h96c43.6,0,79-35.4,79-79s-35.4-79-79-79h-52.5
			c1,4.9,1.5,9.9,1.5,15s-0.5,10.1-1.5,15H175c27,0,49,22,49,49s-22,49-49,49H79c-43.6,0-79,35.4-79,79c0,43.6,35.4,79,79,79h246.5
			c-1-4.9-1.5-9.9-1.5-15s0.5-10.1,1.5-15H79z M401,384c-25.9,0-47,21.1-47,47s21.1,47,47,47s47-21.1,47-47S426.9,384,401,384z
			 M47,222c25.9,0,47-21.1,47-47c0-20.7-13.4-38.3-32-44.5V94h81c8.3,0,15-6.7,15-15V15c0-8.3-6.7-15-15-15H47c-8.3,0-15,6.7-15,15
			v115.5C13.4,136.7,0,154.3,0,175C0,200.9,21.1,222,47,222z M414.4,341.8c0,0,97.6-165.8,97.6-198.8c0-61.2-49.8-111-111-111
			S290,81.8,290,143c0,33.1,97.6,198.8,97.6,198.8C393.2,352.7,408.8,352.7,414.4,341.8z M354,143c0-25.9,21.1-47,47-47
			s47,21.1,47,47s-21.1,47-47,47S354,168.9,354,143z"/>
	</g>
</g>
</svg>
