<svg width="48" height="48" viewBox="0 0 48 48" fill="none" xmlns="http://www.w3.org/2000/svg">
<circle cx="24" cy="24" r="24" fill="#D8D8D8"/>
<path d="M24.032 26.8913C24.776 26.8913 25.3661 26.3128 25.3661 25.6499V13.7051L25.2506 11.9333L25.9946 12.8494L27.6621 14.5248C27.893 14.7538 28.2137 14.8864 28.5472 14.8864C29.1758 14.8864 29.7273 14.4404 29.7273 13.8136C29.7273 13.5002 29.5862 13.2592 29.3553 13.0302L25.071 9.16109C24.7247 8.83565 24.3784 8.72717 24.032 8.72717C23.6729 8.72717 23.3265 8.83565 22.9802 9.16109L18.6959 13.0302C18.465 13.2592 18.3239 13.5002 18.3239 13.8136C18.3239 14.4404 18.8626 14.8864 19.504 14.8864C19.8375 14.8864 20.1582 14.7538 20.3891 14.5248L22.0566 12.8494L22.8006 11.9333L22.6852 13.7051V25.6499C22.6852 26.3128 23.288 26.8913 24.032 26.8913ZM16.5922 36.6544H31.4077C34.2682 36.6544 35.7818 35.2322 35.7818 32.5684V20.8647C35.7818 18.201 34.2682 16.7787 31.4077 16.7787H28.0341V19.5389H31.1383C32.2415 19.5389 32.8572 20.0692 32.8572 21.1661V32.2791C32.8572 33.3639 32.2415 33.8943 31.1383 33.8943H16.8616C15.7456 33.8943 15.1556 33.3639 15.1556 32.2791V21.1661C15.1556 20.0692 15.7456 19.5389 16.8616 19.5389H20.0171V16.7787H16.5922C13.7446 16.7787 12.2181 18.201 12.2181 20.8647V32.5684C12.2181 35.2322 13.7446 36.6544 16.5922 36.6544Z" fill="black"/>
</svg>
